<svg xmlns="http://www.w3.org/2000/svg" xmlns:xlink="http://www.w3.org/1999/xlink" width="500" zoomAndPan="magnify" viewBox="0 0 375 374.999991" height="500" preserveAspectRatio="xMidYMid meet" version="1.2"><g id="53f1cf26b0"><path style=" stroke:none;fill-rule:nonzero;fill:#373941;fill-opacity:1;" d="M 268.347656 50.601562 C 272.824219 38.617188 286.171875 32.53125 298.15625 37.007812 C 310.140625 41.484375 316.226562 54.828125 311.75 66.8125 L 261.316406 201.839844 C 256.839844 213.824219 243.496094 219.910156 231.511719 215.433594 C 219.523438 210.957031 213.4375 197.613281 217.914062 185.628906 Z M 268.347656 50.601562 "/><path style=" stroke:none;fill-rule:nonzero;fill:#373941;fill-opacity:1;" d="M 120.203125 157.207031 C 124.601562 144.710938 138.296875 138.140625 150.796875 142.539062 C 163.292969 146.933594 169.863281 160.628906 165.464844 173.128906 L 111.230469 327.304688 C 106.835938 339.804688 93.140625 346.371094 80.640625 341.976562 C 68.140625 337.578125 61.574219 323.882812 65.96875 311.382812 Z M 120.203125 157.207031 "/><path style=" stroke:none;fill-rule:nonzero;fill:#373941;fill-opacity:1;" d="M 149.085938 89.34375 C 163.859375 79.550781 183.0625 79.550781 197.835938 89.34375 L 253.410156 126.179688 C 270.308594 137.382812 277.398438 158.65625 270.59375 177.757812 L 251.089844 232.519531 C 244.832031 250.097656 228.1875 261.835938 209.527344 261.835938 L 137.390625 261.835938 C 118.730469 261.835938 102.089844 250.097656 95.832031 232.519531 L 76.324219 177.757812 C 69.523438 158.65625 76.613281 137.382812 93.511719 126.179688 Z M 149.085938 89.34375 "/></g></svg>